<mxfile host="Electron" agent="Mozilla/5.0 (Windows NT 10.0; Win64; x64) AppleWebKit/537.36 (KHTML, like Gecko) draw.io/25.0.2 Chrome/128.0.6613.186 Electron/32.2.5 Safari/537.36" version="25.0.2" pages="2">
  <diagram name="main" id="ULoHeIBqLtMHoPHNe_j9">
    <mxGraphModel dx="1613" dy="896" grid="1" gridSize="10" guides="1" tooltips="1" connect="1" arrows="1" fold="1" page="1" pageScale="1" pageWidth="827" pageHeight="1169" math="0" shadow="0">
      <root>
        <mxCell id="0" />
        <mxCell id="1" parent="0" />
        <mxCell id="UpUnJzPDWbkfJXD5X0I6-4" value="" style="edgeStyle=orthogonalEdgeStyle;rounded=0;orthogonalLoop=1;jettySize=auto;html=1;" edge="1" parent="1" source="UpUnJzPDWbkfJXD5X0I6-2" target="UpUnJzPDWbkfJXD5X0I6-3">
          <mxGeometry relative="1" as="geometry" />
        </mxCell>
        <mxCell id="UpUnJzPDWbkfJXD5X0I6-2" value="Начало" style="ellipse;whiteSpace=wrap;html=1;" vertex="1" parent="1">
          <mxGeometry x="340" y="40" width="120" height="40" as="geometry" />
        </mxCell>
        <mxCell id="UpUnJzPDWbkfJXD5X0I6-8" value="" style="edgeStyle=orthogonalEdgeStyle;rounded=0;orthogonalLoop=1;jettySize=auto;html=1;" edge="1" parent="1" source="UpUnJzPDWbkfJXD5X0I6-3" target="UpUnJzPDWbkfJXD5X0I6-7">
          <mxGeometry relative="1" as="geometry" />
        </mxCell>
        <mxCell id="UpUnJzPDWbkfJXD5X0I6-3" value="int main()" style="shape=process;whiteSpace=wrap;html=1;backgroundOutline=1;" vertex="1" parent="1">
          <mxGeometry x="340" y="120" width="120" height="40" as="geometry" />
        </mxCell>
        <mxCell id="UpUnJzPDWbkfJXD5X0I6-5" value="" style="endArrow=none;dashed=1;html=1;rounded=0;" edge="1" parent="1" target="UpUnJzPDWbkfJXD5X0I6-6">
          <mxGeometry width="50" height="50" relative="1" as="geometry">
            <mxPoint x="400" y="100" as="sourcePoint" />
            <mxPoint x="560" y="100" as="targetPoint" />
          </mxGeometry>
        </mxCell>
        <mxCell id="UpUnJzPDWbkfJXD5X0I6-6" value="&lt;div&gt;#include &amp;lt;iostream&amp;gt;&lt;/div&gt;&lt;div&gt;#include &amp;lt;clocale&amp;gt;&lt;/div&gt;&lt;div&gt;using namespace std;&lt;/div&gt;&lt;div&gt;&lt;br&gt;&lt;/div&gt;&lt;div&gt;int linear_search(int* arr, int n, int key);&lt;/div&gt;" style="strokeWidth=2;html=1;shape=mxgraph.flowchart.annotation_1;align=left;pointerEvents=1;" vertex="1" parent="1">
          <mxGeometry x="540" y="50" width="50" height="100" as="geometry" />
        </mxCell>
        <mxCell id="UpUnJzPDWbkfJXD5X0I6-11" value="" style="edgeStyle=orthogonalEdgeStyle;rounded=0;orthogonalLoop=1;jettySize=auto;html=1;" edge="1" parent="1" source="UpUnJzPDWbkfJXD5X0I6-7" target="UpUnJzPDWbkfJXD5X0I6-10">
          <mxGeometry relative="1" as="geometry" />
        </mxCell>
        <mxCell id="UpUnJzPDWbkfJXD5X0I6-7" value="setlocale(LC_ALL, &quot;RU&quot;);" style="whiteSpace=wrap;html=1;" vertex="1" parent="1">
          <mxGeometry x="330" y="200" width="140" height="40" as="geometry" />
        </mxCell>
        <mxCell id="UpUnJzPDWbkfJXD5X0I6-9" value="{" style="text;html=1;align=center;verticalAlign=middle;resizable=0;points=[];autosize=1;strokeColor=none;fillColor=none;" vertex="1" parent="1">
          <mxGeometry x="370" y="160" width="30" height="30" as="geometry" />
        </mxCell>
        <mxCell id="UpUnJzPDWbkfJXD5X0I6-13" value="" style="edgeStyle=orthogonalEdgeStyle;rounded=0;orthogonalLoop=1;jettySize=auto;html=1;" edge="1" parent="1" source="UpUnJzPDWbkfJXD5X0I6-10" target="UpUnJzPDWbkfJXD5X0I6-12">
          <mxGeometry relative="1" as="geometry" />
        </mxCell>
        <mxCell id="UpUnJzPDWbkfJXD5X0I6-10" value="const int n = 10;" style="whiteSpace=wrap;html=1;" vertex="1" parent="1">
          <mxGeometry x="330" y="260" width="140" height="40" as="geometry" />
        </mxCell>
        <mxCell id="UpUnJzPDWbkfJXD5X0I6-15" value="" style="edgeStyle=orthogonalEdgeStyle;rounded=0;orthogonalLoop=1;jettySize=auto;html=1;" edge="1" parent="1" source="UpUnJzPDWbkfJXD5X0I6-12" target="UpUnJzPDWbkfJXD5X0I6-14">
          <mxGeometry relative="1" as="geometry" />
        </mxCell>
        <mxCell id="UpUnJzPDWbkfJXD5X0I6-12" value="int arr[n] = { -2, 1000, 36, 45, 70, -9, 4, 4, 4, 3};" style="whiteSpace=wrap;html=1;" vertex="1" parent="1">
          <mxGeometry x="270" y="320" width="260" height="40" as="geometry" />
        </mxCell>
        <mxCell id="UpUnJzPDWbkfJXD5X0I6-17" value="" style="edgeStyle=orthogonalEdgeStyle;rounded=0;orthogonalLoop=1;jettySize=auto;html=1;" edge="1" parent="1" source="UpUnJzPDWbkfJXD5X0I6-14" target="UpUnJzPDWbkfJXD5X0I6-16">
          <mxGeometry relative="1" as="geometry" />
        </mxCell>
        <mxCell id="UpUnJzPDWbkfJXD5X0I6-14" value="cout &amp;lt;&amp;lt; &quot;Массив:\n&quot;;" style="shape=parallelogram;perimeter=parallelogramPerimeter;whiteSpace=wrap;html=1;fixedSize=1;" vertex="1" parent="1">
          <mxGeometry x="325" y="380" width="150" height="40" as="geometry" />
        </mxCell>
        <mxCell id="UpUnJzPDWbkfJXD5X0I6-19" value="" style="edgeStyle=orthogonalEdgeStyle;rounded=0;orthogonalLoop=1;jettySize=auto;html=1;" edge="1" parent="1" source="UpUnJzPDWbkfJXD5X0I6-16" target="UpUnJzPDWbkfJXD5X0I6-18">
          <mxGeometry relative="1" as="geometry" />
        </mxCell>
        <mxCell id="UpUnJzPDWbkfJXD5X0I6-24" style="edgeStyle=orthogonalEdgeStyle;rounded=0;orthogonalLoop=1;jettySize=auto;html=1;entryX=0.5;entryY=0;entryDx=0;entryDy=0;" edge="1" parent="1" source="UpUnJzPDWbkfJXD5X0I6-16" target="UpUnJzPDWbkfJXD5X0I6-26">
          <mxGeometry relative="1" as="geometry">
            <mxPoint x="400" y="620" as="targetPoint" />
            <Array as="points">
              <mxPoint x="500" y="460" />
              <mxPoint x="500" y="600" />
              <mxPoint x="400" y="600" />
            </Array>
          </mxGeometry>
        </mxCell>
        <mxCell id="UpUnJzPDWbkfJXD5X0I6-16" value="for (int i = 0; i &amp;lt; n; i++)" style="shape=hexagon;perimeter=hexagonPerimeter2;whiteSpace=wrap;html=1;fixedSize=1;" vertex="1" parent="1">
          <mxGeometry x="325" y="440" width="150" height="40" as="geometry" />
        </mxCell>
        <mxCell id="UpUnJzPDWbkfJXD5X0I6-23" style="edgeStyle=orthogonalEdgeStyle;rounded=0;orthogonalLoop=1;jettySize=auto;html=1;entryX=0;entryY=0.5;entryDx=0;entryDy=0;" edge="1" parent="1" source="UpUnJzPDWbkfJXD5X0I6-18" target="UpUnJzPDWbkfJXD5X0I6-16">
          <mxGeometry relative="1" as="geometry">
            <Array as="points">
              <mxPoint x="400" y="580" />
              <mxPoint x="305" y="580" />
              <mxPoint x="305" y="460" />
            </Array>
          </mxGeometry>
        </mxCell>
        <mxCell id="UpUnJzPDWbkfJXD5X0I6-18" value="cout &amp;lt;&amp;lt; arr[i] &amp;lt;&amp;lt; &#39; &#39;;" style="shape=parallelogram;perimeter=parallelogramPerimeter;whiteSpace=wrap;html=1;fixedSize=1;" vertex="1" parent="1">
          <mxGeometry x="325" y="520" width="150" height="40" as="geometry" />
        </mxCell>
        <mxCell id="UpUnJzPDWbkfJXD5X0I6-22" value="1" style="text;html=1;align=center;verticalAlign=middle;resizable=0;points=[];autosize=1;strokeColor=none;fillColor=none;" vertex="1" parent="1">
          <mxGeometry x="400" y="490" width="30" height="30" as="geometry" />
        </mxCell>
        <mxCell id="UpUnJzPDWbkfJXD5X0I6-25" value="0" style="text;html=1;align=center;verticalAlign=middle;resizable=0;points=[];autosize=1;strokeColor=none;fillColor=none;" vertex="1" parent="1">
          <mxGeometry x="475" y="438" width="30" height="30" as="geometry" />
        </mxCell>
        <mxCell id="UpUnJzPDWbkfJXD5X0I6-28" value="" style="edgeStyle=orthogonalEdgeStyle;rounded=0;orthogonalLoop=1;jettySize=auto;html=1;" edge="1" parent="1" source="UpUnJzPDWbkfJXD5X0I6-26" target="UpUnJzPDWbkfJXD5X0I6-27">
          <mxGeometry relative="1" as="geometry" />
        </mxCell>
        <mxCell id="UpUnJzPDWbkfJXD5X0I6-26" value="cout &amp;lt;&amp;lt; endl;" style="shape=parallelogram;perimeter=parallelogramPerimeter;whiteSpace=wrap;html=1;fixedSize=1;" vertex="1" parent="1">
          <mxGeometry x="340" y="620" width="120" height="40" as="geometry" />
        </mxCell>
        <mxCell id="UpUnJzPDWbkfJXD5X0I6-30" value="" style="edgeStyle=orthogonalEdgeStyle;rounded=0;orthogonalLoop=1;jettySize=auto;html=1;" edge="1" parent="1" source="UpUnJzPDWbkfJXD5X0I6-27" target="UpUnJzPDWbkfJXD5X0I6-29">
          <mxGeometry relative="1" as="geometry" />
        </mxCell>
        <mxCell id="UpUnJzPDWbkfJXD5X0I6-27" value="int key;" style="whiteSpace=wrap;html=1;" vertex="1" parent="1">
          <mxGeometry x="340" y="680" width="120" height="40" as="geometry" />
        </mxCell>
        <mxCell id="UpUnJzPDWbkfJXD5X0I6-32" value="" style="edgeStyle=orthogonalEdgeStyle;rounded=0;orthogonalLoop=1;jettySize=auto;html=1;" edge="1" parent="1" source="UpUnJzPDWbkfJXD5X0I6-29" target="UpUnJzPDWbkfJXD5X0I6-31">
          <mxGeometry relative="1" as="geometry" />
        </mxCell>
        <mxCell id="UpUnJzPDWbkfJXD5X0I6-29" value="cout &amp;lt;&amp;lt; &quot;Введите ключ значение: &quot;;" style="shape=parallelogram;perimeter=parallelogramPerimeter;whiteSpace=wrap;html=1;fixedSize=1;" vertex="1" parent="1">
          <mxGeometry x="280" y="740" width="240" height="40" as="geometry" />
        </mxCell>
        <mxCell id="UpUnJzPDWbkfJXD5X0I6-34" value="" style="edgeStyle=orthogonalEdgeStyle;rounded=0;orthogonalLoop=1;jettySize=auto;html=1;" edge="1" parent="1" source="UpUnJzPDWbkfJXD5X0I6-31" target="UpUnJzPDWbkfJXD5X0I6-33">
          <mxGeometry relative="1" as="geometry" />
        </mxCell>
        <mxCell id="UpUnJzPDWbkfJXD5X0I6-31" value="cin &amp;gt;&amp;gt; key;" style="shape=parallelogram;perimeter=parallelogramPerimeter;whiteSpace=wrap;html=1;fixedSize=1;" vertex="1" parent="1">
          <mxGeometry x="340" y="800" width="120" height="40" as="geometry" />
        </mxCell>
        <mxCell id="UpUnJzPDWbkfJXD5X0I6-36" value="" style="edgeStyle=orthogonalEdgeStyle;rounded=0;orthogonalLoop=1;jettySize=auto;html=1;" edge="1" parent="1" source="UpUnJzPDWbkfJXD5X0I6-33" target="UpUnJzPDWbkfJXD5X0I6-35">
          <mxGeometry relative="1" as="geometry" />
        </mxCell>
        <mxCell id="UpUnJzPDWbkfJXD5X0I6-33" value="int ind = linear_search(arr, n, key);" style="whiteSpace=wrap;html=1;" vertex="1" parent="1">
          <mxGeometry x="280" y="860" width="240" height="40" as="geometry" />
        </mxCell>
        <mxCell id="UpUnJzPDWbkfJXD5X0I6-38" value="" style="edgeStyle=orthogonalEdgeStyle;rounded=0;orthogonalLoop=1;jettySize=auto;html=1;exitX=0;exitY=0.5;exitDx=0;exitDy=0;" edge="1" parent="1" source="UpUnJzPDWbkfJXD5X0I6-35" target="UpUnJzPDWbkfJXD5X0I6-37">
          <mxGeometry relative="1" as="geometry" />
        </mxCell>
        <mxCell id="UpUnJzPDWbkfJXD5X0I6-42" style="edgeStyle=orthogonalEdgeStyle;rounded=0;orthogonalLoop=1;jettySize=auto;html=1;" edge="1" parent="1" source="UpUnJzPDWbkfJXD5X0I6-35" target="UpUnJzPDWbkfJXD5X0I6-43">
          <mxGeometry relative="1" as="geometry">
            <mxPoint x="560" y="999.9999999999998" as="targetPoint" />
          </mxGeometry>
        </mxCell>
        <mxCell id="UpUnJzPDWbkfJXD5X0I6-35" value="if (ind &amp;gt;= 0)" style="rhombus;whiteSpace=wrap;html=1;" vertex="1" parent="1">
          <mxGeometry x="345" y="920" width="110" height="40" as="geometry" />
        </mxCell>
        <mxCell id="UpUnJzPDWbkfJXD5X0I6-45" style="edgeStyle=orthogonalEdgeStyle;rounded=0;orthogonalLoop=1;jettySize=auto;html=1;exitX=0.5;exitY=1;exitDx=0;exitDy=0;" edge="1" parent="1" source="UpUnJzPDWbkfJXD5X0I6-37">
          <mxGeometry relative="1" as="geometry">
            <mxPoint x="400" y="1059.9999999999998" as="targetPoint" />
            <Array as="points">
              <mxPoint x="195" y="1060" />
            </Array>
          </mxGeometry>
        </mxCell>
        <mxCell id="UpUnJzPDWbkfJXD5X0I6-37" value="cout &amp;lt;&amp;lt; &quot;Массив содержит искомый элемент по индексу: &quot; &amp;lt;&amp;lt; ind &amp;lt;&amp;lt; endl;" style="shape=parallelogram;perimeter=parallelogramPerimeter;whiteSpace=wrap;html=1;fixedSize=1;" vertex="1" parent="1">
          <mxGeometry x="45" y="1000" width="300" height="40" as="geometry" />
        </mxCell>
        <mxCell id="UpUnJzPDWbkfJXD5X0I6-39" value="1" style="text;html=1;align=center;verticalAlign=middle;resizable=0;points=[];autosize=1;strokeColor=none;fillColor=none;" vertex="1" parent="1">
          <mxGeometry x="195" y="910" width="30" height="30" as="geometry" />
        </mxCell>
        <mxCell id="UpUnJzPDWbkfJXD5X0I6-46" style="edgeStyle=orthogonalEdgeStyle;rounded=0;orthogonalLoop=1;jettySize=auto;html=1;exitX=0.5;exitY=1;exitDx=0;exitDy=0;" edge="1" parent="1" source="UpUnJzPDWbkfJXD5X0I6-43">
          <mxGeometry relative="1" as="geometry">
            <mxPoint x="400" y="1059.9999999999998" as="targetPoint" />
            <Array as="points">
              <mxPoint x="600" y="1060" />
            </Array>
          </mxGeometry>
        </mxCell>
        <mxCell id="UpUnJzPDWbkfJXD5X0I6-43" value="cout &amp;lt;&amp;lt; &quot;Массив не содержит искомый элемент&quot; &amp;lt;&amp;lt; endl;" style="shape=parallelogram;perimeter=parallelogramPerimeter;whiteSpace=wrap;html=1;fixedSize=1;" vertex="1" parent="1">
          <mxGeometry x="470" y="1000" width="260" height="40" as="geometry" />
        </mxCell>
        <mxCell id="UpUnJzPDWbkfJXD5X0I6-44" value="0" style="text;html=1;align=center;verticalAlign=middle;resizable=0;points=[];autosize=1;strokeColor=none;fillColor=none;" vertex="1" parent="1">
          <mxGeometry x="575" y="910" width="30" height="30" as="geometry" />
        </mxCell>
        <mxCell id="UpUnJzPDWbkfJXD5X0I6-47" value="" style="endArrow=classic;html=1;rounded=0;entryX=0.5;entryY=0;entryDx=0;entryDy=0;" edge="1" parent="1" target="UpUnJzPDWbkfJXD5X0I6-48">
          <mxGeometry width="50" height="50" relative="1" as="geometry">
            <mxPoint x="400" y="1060" as="sourcePoint" />
            <mxPoint x="400" y="1080" as="targetPoint" />
          </mxGeometry>
        </mxCell>
        <mxCell id="UpUnJzPDWbkfJXD5X0I6-48" value="return 0;" style="ellipse;whiteSpace=wrap;html=1;" vertex="1" parent="1">
          <mxGeometry x="340" y="1080" width="120" height="40" as="geometry" />
        </mxCell>
        <mxCell id="UpUnJzPDWbkfJXD5X0I6-49" value="}" style="text;html=1;align=center;verticalAlign=middle;resizable=0;points=[];autosize=1;strokeColor=none;fillColor=none;" vertex="1" parent="1">
          <mxGeometry x="400" y="1120" width="30" height="30" as="geometry" />
        </mxCell>
      </root>
    </mxGraphModel>
  </diagram>
  <diagram id="Ev070-QvxDjemk00IUUG" name="linear_search">
    <mxGraphModel dx="806" dy="448" grid="1" gridSize="10" guides="1" tooltips="1" connect="1" arrows="1" fold="1" page="1" pageScale="1" pageWidth="827" pageHeight="1169" math="0" shadow="0">
      <root>
        <mxCell id="0" />
        <mxCell id="1" parent="0" />
        <mxCell id="IGVPlipj8nYQaXrNXwkT-4" value="" style="edgeStyle=orthogonalEdgeStyle;rounded=0;orthogonalLoop=1;jettySize=auto;html=1;" edge="1" parent="1" source="IGVPlipj8nYQaXrNXwkT-2" target="IGVPlipj8nYQaXrNXwkT-3">
          <mxGeometry relative="1" as="geometry" />
        </mxCell>
        <mxCell id="IGVPlipj8nYQaXrNXwkT-2" value="int linear_search(int* arr, int n, int key)" style="shape=process;whiteSpace=wrap;html=1;backgroundOutline=1;size=0.043478260869565216;" vertex="1" parent="1">
          <mxGeometry x="320" y="40" width="240" height="40" as="geometry" />
        </mxCell>
        <mxCell id="IGVPlipj8nYQaXrNXwkT-7" value="" style="edgeStyle=orthogonalEdgeStyle;rounded=0;orthogonalLoop=1;jettySize=auto;html=1;" edge="1" parent="1" source="IGVPlipj8nYQaXrNXwkT-3" target="IGVPlipj8nYQaXrNXwkT-6">
          <mxGeometry relative="1" as="geometry" />
        </mxCell>
        <mxCell id="6Jz3VfJ3rxx52CqEwX3W-8" style="edgeStyle=orthogonalEdgeStyle;rounded=0;orthogonalLoop=1;jettySize=auto;html=1;entryX=0.5;entryY=0;entryDx=0;entryDy=0;" edge="1" parent="1" source="IGVPlipj8nYQaXrNXwkT-3" target="6Jz3VfJ3rxx52CqEwX3W-9">
          <mxGeometry relative="1" as="geometry">
            <mxPoint x="660" y="199.9999999999999" as="targetPoint" />
          </mxGeometry>
        </mxCell>
        <mxCell id="IGVPlipj8nYQaXrNXwkT-3" value="for (int i = 0; i &amp;lt; n; i++)" style="shape=hexagon;perimeter=hexagonPerimeter2;whiteSpace=wrap;html=1;fixedSize=1;" vertex="1" parent="1">
          <mxGeometry x="370" y="120" width="140" height="40" as="geometry" />
        </mxCell>
        <mxCell id="IGVPlipj8nYQaXrNXwkT-5" value="{" style="text;html=1;align=center;verticalAlign=middle;resizable=0;points=[];autosize=1;strokeColor=none;fillColor=none;" vertex="1" parent="1">
          <mxGeometry x="414" y="80" width="30" height="30" as="geometry" />
        </mxCell>
        <mxCell id="IGVPlipj8nYQaXrNXwkT-9" style="edgeStyle=orthogonalEdgeStyle;rounded=0;orthogonalLoop=1;jettySize=auto;html=1;entryX=0.5;entryY=0;entryDx=0;entryDy=0;exitX=0;exitY=0.5;exitDx=0;exitDy=0;" edge="1" parent="1" source="IGVPlipj8nYQaXrNXwkT-6" target="6Jz3VfJ3rxx52CqEwX3W-1">
          <mxGeometry relative="1" as="geometry">
            <mxPoint x="320" y="279.9999999999999" as="targetPoint" />
          </mxGeometry>
        </mxCell>
        <mxCell id="6Jz3VfJ3rxx52CqEwX3W-3" style="edgeStyle=orthogonalEdgeStyle;rounded=0;orthogonalLoop=1;jettySize=auto;html=1;" edge="1" parent="1" source="IGVPlipj8nYQaXrNXwkT-6">
          <mxGeometry relative="1" as="geometry">
            <mxPoint x="440" y="340.0000000000001" as="targetPoint" />
            <Array as="points">
              <mxPoint x="540" y="220" />
              <mxPoint x="540" y="340" />
            </Array>
          </mxGeometry>
        </mxCell>
        <mxCell id="IGVPlipj8nYQaXrNXwkT-6" value="if (arr[i] == key)" style="rhombus;whiteSpace=wrap;html=1;" vertex="1" parent="1">
          <mxGeometry x="370" y="200" width="140" height="40" as="geometry" />
        </mxCell>
        <mxCell id="IGVPlipj8nYQaXrNXwkT-8" value="1" style="text;html=1;align=center;verticalAlign=middle;resizable=0;points=[];autosize=1;strokeColor=none;fillColor=none;" vertex="1" parent="1">
          <mxGeometry x="444" y="170" width="30" height="30" as="geometry" />
        </mxCell>
        <mxCell id="6Jz3VfJ3rxx52CqEwX3W-2" style="edgeStyle=orthogonalEdgeStyle;rounded=0;orthogonalLoop=1;jettySize=auto;html=1;exitX=0.5;exitY=1;exitDx=0;exitDy=0;" edge="1" parent="1" source="6Jz3VfJ3rxx52CqEwX3W-1">
          <mxGeometry relative="1" as="geometry">
            <mxPoint x="440" y="340.0000000000001" as="targetPoint" />
            <Array as="points">
              <mxPoint x="320" y="340" />
            </Array>
          </mxGeometry>
        </mxCell>
        <mxCell id="6Jz3VfJ3rxx52CqEwX3W-1" value="return i;" style="ellipse;whiteSpace=wrap;html=1;" vertex="1" parent="1">
          <mxGeometry x="260" y="280" width="120" height="40" as="geometry" />
        </mxCell>
        <mxCell id="6Jz3VfJ3rxx52CqEwX3W-4" value="1" style="text;html=1;align=center;verticalAlign=middle;resizable=0;points=[];autosize=1;strokeColor=none;fillColor=none;" vertex="1" parent="1">
          <mxGeometry x="320" y="190" width="30" height="30" as="geometry" />
        </mxCell>
        <mxCell id="6Jz3VfJ3rxx52CqEwX3W-5" value="0" style="text;html=1;align=center;verticalAlign=middle;resizable=0;points=[];autosize=1;strokeColor=none;fillColor=none;" vertex="1" parent="1">
          <mxGeometry x="510" y="190" width="30" height="30" as="geometry" />
        </mxCell>
        <mxCell id="6Jz3VfJ3rxx52CqEwX3W-6" value="" style="endArrow=classic;html=1;rounded=0;entryX=0;entryY=0.5;entryDx=0;entryDy=0;" edge="1" parent="1" target="IGVPlipj8nYQaXrNXwkT-3">
          <mxGeometry width="50" height="50" relative="1" as="geometry">
            <mxPoint x="440" y="340" as="sourcePoint" />
            <mxPoint x="494" y="290" as="targetPoint" />
            <Array as="points">
              <mxPoint x="440" y="360" />
              <mxPoint x="250" y="360" />
              <mxPoint x="250" y="270" />
              <mxPoint x="250" y="140" />
            </Array>
          </mxGeometry>
        </mxCell>
        <mxCell id="6Jz3VfJ3rxx52CqEwX3W-9" value="return -1;" style="ellipse;whiteSpace=wrap;html=1;" vertex="1" parent="1">
          <mxGeometry x="600" y="200" width="120" height="40" as="geometry" />
        </mxCell>
        <mxCell id="6Jz3VfJ3rxx52CqEwX3W-10" value="}" style="text;html=1;align=center;verticalAlign=middle;resizable=0;points=[];autosize=1;strokeColor=none;fillColor=none;" vertex="1" parent="1">
          <mxGeometry x="660" y="240" width="30" height="30" as="geometry" />
        </mxCell>
        <mxCell id="6Jz3VfJ3rxx52CqEwX3W-11" value="0" style="text;html=1;align=center;verticalAlign=middle;resizable=0;points=[];autosize=1;strokeColor=none;fillColor=none;" vertex="1" parent="1">
          <mxGeometry x="630" y="110" width="30" height="30" as="geometry" />
        </mxCell>
      </root>
    </mxGraphModel>
  </diagram>
</mxfile>
